/* XPM */
static char *_60abfeb493b4eae9aa2327c0a0c1757SlNM31krsQ61mqyf[] = {
/* columns rows colors chars-per-pixel */
"16 16 2 1 ",
"  c white",
". c black",
/* pixels */
"................",
"................",
"................",
".....      .....",
".... ...... ....",
"... ..    .. ...",
"... .  ..  . ...",
"... .  ..  . ...",
"... .  ..  . ...",
"... .  ..  . ...",
"... ..    .. ...",
".... ...... ....",
".....      .....",
"................",
"................",
"................"
};
