/* XPM */
static char *_0de37a6b2ff42f8db15a6ec134ac36a6WYm8lgQAmQj4wul[] = {
/* columns rows colors chars-per-pixel */
"16 16 2 1 ",
"  c white",
". c black",
/* pixels */
"................",
"................",
"................",
"................",
"................",
"...  ......  ...",
"..   ......   ..",
".. . .    . . ..",
"... .      . ...",
".....      .....",
"....  .  .  ....",
"....  .  .  ....",
"..  .  ..  .  ..",
"..  .      .  ..",
".....      .....",
".... ...... ...."
};
