/* XPM */
static char *_9a3878692994b38b67fc02aa8e072148Xzp1XxC21doab86[] = {
/* columns rows colors chars-per-pixel */
"16 16 2 1 ",
"  c white",
". c black",
/* pixels */
"                ",
" . ..  ..  .. . ",
"  ............  ",
" ..  . ........ ",
" ..  .......... ",
"  ............  ",
"  . ..........  ",
" .............. ",
" ........... .. ",
"  ............  ",
"  ........   .  ",
" ......  .   .. ",
" ......  .   .. ",
"  ............  ",
" . ..  ..  .. . ",
"                "
};
