/* XPM */
static char *_82a6a6c059d491ec6ead6f7ad946ec0tEyYqFowp2hZb1cY[] = {
/* columns rows colors chars-per-pixel */
"16 16 2 1 ",
"  c black",
". c white",
/* pixels */
"                ",
"  ............  ",
" .............. ",
" ..          .. ",
" ..          .. ",
" .. ........ .. ",
" .. ........ .. ",
" .. ...  ... .. ",
" .. ..    .. .. ",
" .. ..    .. .. ",
" .. ...  ... .. ",
" .. ...  ... .. ",
" .. ........ .. ",
" .. ........ .. ",
" .. ........ .. ",
" .. ........ .. "
};
