/* XPM */
static char *result[] = {
/* columns rows colors chars-per-pixel */
"32 32 3 1 ",
"  c black",
". c #FFC20E",
"X c white",
/* pixels */
"                                ",
"                                ",
"                                ",
"                                ",
"                                ",
"                                ",
"          ............          ",
"          ............          ",
"        ..            ..        ",
"        ..            ..        ",
"      ..    ........    ..      ",
"      ..    ........    ..      ",
"      ..  ....    ....  ..      ",
"      ..  .XX.    ....  ..      ",
"      ..  ..X.    ....  ..      ",
"      ..  ....    ....  ..      ",
"      ..  ....    ....  ..      ",
"      ..  ....    ..X.  ..      ",
"      ..  ....    .X..  ..      ",
"      ..  ....    ....  ..      ",
"      ..    ........    ..      ",
"      ..    ........    ..      ",
"        ..            ..        ",
"        ..            ..        ",
"          ............          ",
"          ............          ",
"                                ",
"                                ",
"                                ",
"                                ",
"                                ",
"                                "
};
