/* XPM */
static char *result[] = {
/* columns rows colors chars-per-pixel */
"32 32 3 1 ",
"  c black",
". c #464646",
"X c white",
/* pixels */
"                                ",
"                                ",
"    XXXXXXXXXXXXXXXXXXXXXXXX    ",
"    XXXXXXXXXXXXXXXXXXXXXXXX    ",
"  XXXXXXXXXXXXXXXXXXXXXXXXXXXX  ",
"  XXXXXXXXXXXXXXXXXXXXXXXXXXXX  ",
"  XXXX                    XXXX  ",
"  XXXX                    XXXX  ",
"  XX........        ........XX  ",
"  XX........        ........XX  ",
"  ....XXXX..XXXXXXXX..XXXX....  ",
"  ....XXXX..XXXXXXXX..XXXX....  ",
"  ..XXXXXX............XXXXXX..  ",
"  ..XXXXXX............XXXXXX..  ",
"  ..XX  XX..XXXXXXXX..XX  XX..  ",
"  ..XX  XX..XXXXXXXX..XX  XX..  ",
"  ....XX..XXXXXXXXXXXX..XX....  ",
"  ....XX..XXXXXXXXXXXX..XX....  ",
"  XX......XXXXXXXXXXXX....XXXX  ",
"  XX......XXXXXXXXXXXX....XXXX  ",
"  XXXX..XXXX  XXXX  XXXX..XXXX  ",
"  XXXX..XXXX  XXXX  XXXX..XXXX  ",
"  ......XXXX  XXXX  XXXX......  ",
"  ......XXXX  XXXX  XXXX......  ",
"  ..XXXX..XXXX    XXXX..XXXX..  ",
"  ..XXXX..XXXX    XXXX..XXXX..  ",
"  ..XXXX..XXXXXXXXXXXX..XXXX..  ",
"  ..XXXX..XXXXXXXXXXXX..XXXX..  ",
"  ........XXXXXXXXXXXX........  ",
"  ........XXXXXXXXXXXX........  ",
"  XXXX..XX............XX..XXXX  ",
"  XXXX..XX............XX..XXXX  "
};
