/* XPM */
static char *e9c3f306089840aceb8db89e6e7126d9HV3vhvJFMvxgMaIi[] = {
/* columns rows colors chars-per-pixel */
"16 16 2 1 ",
"  c white",
". c black",
/* pixels */
".              .",
" .............. ",
" .            . ",
"..            ..",
" . ..  ..  .. . ",
"  ............  ",
"  ............  ",
" .............. ",
" .............. ",
"  ............  ",
"  ............  ",
" .............. ",
" .............. ",
"   ..........   ",
"   ..  ..  ..   ",
".              ."
};
