/* XPM */
static char *_e7291d785604a99e232ff996f44c983Mgjzxj9UX9RWZEkA[] = {
/* columns rows colors chars-per-pixel */
"16 16 2 1 ",
"  c white",
". c black",
/* pixels */
"................",
"..            ..",
".              .",
".  ..........  .",
".  .  .......  .",
".  .  .......  .",
".  .  .......  .",
".  .  .......  .",
".  .  .......  .",
".  .  .......  .",
".  .   ......  .",
".  .  .......  .",
".  .  .......  .",
".  .  .......  .",
".  .  .. . ..  .",
".  .  . . . .  ."
};
